<?xml version="1.0" encoding="UTF-8" standalone="no"?>
<svg width="424px" height="75px" viewBox="0 0 424 75" version="1.1" xmlns="http://www.w3.org/2000/svg" xmlns:xlink="http://www.w3.org/1999/xlink" xmlns:sketch="http://www.bohemiancoding.com/sketch/ns">
    <!-- Generator: Sketch 3.0.1 (7597) - http://www.bohemiancoding.com/sketch -->
    <title>Михаил Драгункин + Brand new site this </title>
    <description>Created with Sketch.</description>
    <defs></defs>
    <g id="Page-1" stroke="none" stroke-width="1" fill="none" fill-rule="evenodd" sketch:type="MSPage">
        <g id="Михаил-Драгункин-+-Brand-new-site-this-" sketch:type="MSLayerGroup" transform="translate(1.000000, 0.000000)">
            <path d="M63.128,56.864 L63.128,74 L70.208,74 C71.0240041,74 71.7799965,73.900001 72.476,73.7 C73.1720035,73.499999 73.7679975,73.2080019 74.264,72.824 C74.7600025,72.4399981 75.1479986,71.9560029 75.428,71.372 C75.7080014,70.7879971 75.848,70.1120038 75.848,69.344 C75.848,68.6879967 75.7360011,68.1000026 75.512,67.58 C75.2879989,67.0599974 74.9880019,66.6200018 74.612,66.26 C74.2359981,65.8999982 73.7960025,65.620001 73.292,65.42 C72.7879975,65.219999 72.2560028,65.1120001 71.696,65.096 L71.696,65.048 C72.2240026,65.0159998 72.7079978,64.8920011 73.148,64.676 C73.5880022,64.4599989 73.9679984,64.1760018 74.288,63.824 C74.6080016,63.4719982 74.8599991,63.0640023 75.044,62.6 C75.2280009,62.1359977 75.32,61.6480026 75.32,61.136 C75.32,60.4159964 75.1960012,59.7920026 74.948,59.264 C74.6999988,58.7359974 74.3560022,58.2920018 73.916,57.932 C73.4759978,57.5719982 72.9640029,57.3040009 72.38,57.128 C71.7959971,56.9519991 71.1680034,56.864 70.496,56.864 L63.128,56.864 Z M63.608,64.832 L63.608,57.344 L70.496,57.344 C71.104003,57.344 71.6719974,57.4199992 72.2,57.572 C72.7280026,57.7240008 73.187998,57.9559984 73.58,58.268 C73.972002,58.5800016 74.2799989,58.9719976 74.504,59.444 C74.7280011,59.9160024 74.84,60.4799967 74.84,61.136 C74.84,61.744003 74.7200012,62.2799977 74.48,62.744 C74.2399988,63.2080023 73.920002,63.5959984 73.52,63.908 C73.119998,64.2200016 72.6600026,64.4519992 72.14,64.604 C71.6199974,64.7560008 71.0720029,64.832 70.496,64.832 L63.608,64.832 Z M63.608,73.52 L63.608,65.312 L70.496,65.312 C71.104003,65.312 71.6999971,65.3839993 72.284,65.528 C72.8680029,65.6720007 73.3879977,65.9039984 73.844,66.224 C74.3000023,66.5440016 74.6679986,66.9599974 74.948,67.472 C75.2280014,67.9840026 75.368,68.6159962 75.368,69.368 C75.368,70.0720035 75.2400013,70.6839974 74.984,71.204 C74.7279987,71.7240026 74.3800022,72.1559983 73.94,72.5 C73.4999978,72.8440017 72.980003,73.0999992 72.38,73.268 C71.779997,73.4360008 71.1280035,73.52 70.424,73.52 L63.608,73.52 Z M79.4640001,74 L79.4640001,67.016 C79.4640001,66.3439966 79.5599992,65.6880032 79.7520001,65.048 C79.9440011,64.4079968 80.2399981,63.8440024 80.6400001,63.356 C81.0400021,62.8679976 81.547997,62.4840014 82.1640001,62.204 C82.7800032,61.9239986 83.5119959,61.8079998 84.3600001,61.856 L84.3600001,61.376 C83.6239964,61.3599999 82.9800029,61.4399991 82.4280001,61.616 C81.8759974,61.7920009 81.4000021,62.0319985 81.0000001,62.336 C80.5999981,62.6400015 80.2800013,62.995998 80.0400001,63.404 C79.7999989,63.812002 79.6240007,64.2479977 79.5120001,64.712 L79.4640001,64.712 L79.4640001,61.664 L78.9840001,61.664 L78.9840001,74 L79.4640001,74 Z M86.1760002,65.48 L86.6560002,65.48 C86.7360006,64.3279942 87.1359966,63.4360032 87.8560002,62.804 C88.5760038,62.1719968 89.5839938,61.856 90.8800002,61.856 C91.6960043,61.856 92.3439978,61.9639989 92.8240002,62.18 C93.3040026,62.3960011 93.667999,62.6719983 93.9160002,63.008 C94.1640015,63.3440017 94.3199999,63.711998 94.3840002,64.112 C94.4480006,64.512002 94.4800002,64.8959982 94.4800002,65.264 C94.4800002,65.7280023 94.3880012,66.0839988 94.2040002,66.332 C94.0199993,66.5800012 93.7320022,66.7639994 93.3400002,66.884 C92.9479983,67.0040006 92.4480033,67.0839998 91.8400002,67.124 C91.2319972,67.1640002 90.5040045,67.2079998 89.6560002,67.256 C89.1439977,67.2880002 88.6320028,67.3559995 88.1200002,67.46 C87.6079977,67.5640005 87.1520022,67.7479987 86.7520002,68.012 C86.3519982,68.2760013 86.0280015,68.6399977 85.7800002,69.104 C85.531999,69.5680023 85.4080002,70.1839962 85.4080002,70.952 C85.4080002,72.0560055 85.7839965,72.8839972 86.5360002,73.436 C87.288004,73.9880028 88.287994,74.264 89.5360002,74.264 C90.1760034,74.264 90.7679975,74.1800008 91.3120002,74.012 C91.856003,73.8439992 92.3399981,73.6160014 92.7640002,73.328 C93.1880024,73.0399986 93.5399988,72.7120018 93.8200002,72.344 C94.1000016,71.9759982 94.3039996,71.592002 94.4320002,71.192 L94.4800002,71.192 L94.4800002,72.8 C94.4800002,73.2640023 94.6119989,73.5799992 94.8760002,73.748 C95.1400016,73.9160008 95.4479985,74 95.8000002,74 L96.5200002,74 L96.5200002,73.52 C96.3599994,73.5360001 96.1880012,73.548 96.0040002,73.556 C95.8199993,73.564 95.648001,73.5480002 95.4880002,73.508 C95.3279994,73.4679998 95.2000007,73.3920006 95.1040002,73.28 C95.0079998,73.1679994 94.9600002,72.9920012 94.9600002,72.752 L94.9600002,64.904 C94.9440002,64.2319966 94.8240014,63.6720022 94.6000002,63.224 C94.3759991,62.7759978 94.0800021,62.4120014 93.7120002,62.132 C93.3439984,61.8519986 92.9160027,61.6560006 92.4280002,61.544 C91.9399978,61.4319994 91.424003,61.376 90.8800002,61.376 C90.1119964,61.376 89.4440031,61.479999 88.8760002,61.688 C88.3079974,61.896001 87.8280022,62.1839982 87.4360002,62.552 C87.0439983,62.9200018 86.7440013,63.3559975 86.5360002,63.86 C86.3279992,64.3640025 86.2080004,64.9039971 86.1760002,65.48 Z M94.4800002,66.752 L94.4800002,69.032 C94.4800002,69.640003 94.3720013,70.2319971 94.1560002,70.808 C93.9399992,71.3840029 93.6200024,71.8919978 93.1960002,72.332 C92.7719981,72.7720022 92.2480034,73.1279986 91.6240002,73.4 C90.9999971,73.6720014 90.2880042,73.808 89.4880002,73.808 C88.8159969,73.808 88.2520025,73.7240008 87.7960002,73.556 C87.339998,73.3879992 86.9680017,73.1720013 86.6800002,72.908 C86.3919988,72.6439987 86.1880008,72.3400017 86.0680002,71.996 C85.9479996,71.6519983 85.8880002,71.3040018 85.8880002,70.952 C85.8880002,70.2959967 85.9919992,69.764002 86.2000002,69.356 C86.4080013,68.947998 86.6879985,68.6280012 87.0400002,68.396 C87.392002,68.1639988 87.795998,68.0040004 88.2520002,67.916 C88.7080025,67.8279996 89.1759978,67.7680002 89.6560002,67.736 C90.1360026,67.7039998 90.6279977,67.6800001 91.1320002,67.664 C91.6360028,67.6479999 92.1039981,67.6080003 92.5360002,67.544 C92.9680024,67.4799997 93.3519986,67.3880006 93.6880002,67.268 C94.0240019,67.1479994 94.2719994,66.9760011 94.4320002,66.752 L94.4800002,66.752 Z M98.7440004,61.664 L98.7440004,74 L99.2240004,74 L99.2240004,67.016 C99.2240004,66.3279966 99.3199994,65.6720031 99.5120004,65.048 C99.7040013,64.4239969 99.9879985,63.8760024 100.364,63.404 C100.740002,62.9319976 101.207998,62.5560014 101.768,62.276 C102.328003,61.9959986 102.975997,61.856 103.712,61.856 C104.240003,61.856 104.739998,61.9319992 105.212,62.084 C105.684003,62.2360008 106.099999,62.4759984 106.46,62.804 C106.820002,63.1320016 107.103999,63.5479975 107.312,64.052 C107.520001,64.5560025 107.624,65.1679964 107.624,65.888 L107.624,74 L108.104,74 L108.104,65.816 C108.104,65.0959964 107.996001,64.4600028 107.78,63.908 C107.563999,63.3559972 107.260002,62.8920019 106.868,62.516 C106.475998,62.1399981 106.012003,61.856001 105.476,61.664 C104.939998,61.471999 104.352004,61.376 103.712,61.376 C103.103997,61.376 102.552003,61.4599992 102.056,61.628 C101.559998,61.7960008 101.124002,62.0319985 100.748,62.336 C100.371998,62.6400015 100.060002,62.991998 99.8120004,63.392 C99.5639991,63.792002 99.3840009,64.2319976 99.2720004,64.712 L99.2240004,64.712 L99.2240004,61.664 L98.7440004,61.664 Z M121.344,56.864 L121.344,65.12 L121.296,65.12 C121.007999,63.9999944 120.440005,63.0960034 119.592,62.408 C118.743996,61.7199966 117.664007,61.376 116.352,61.376 C115.503996,61.376 114.752004,61.5519982 114.096,61.904 C113.439997,62.2560018 112.892003,62.727997 112.452,63.32 C112.011998,63.912003 111.676002,64.5999961 111.444,65.384 C111.211999,66.1680039 111.096,66.9919957 111.096,67.856 C111.096,68.7840046 111.215999,69.6399961 111.456,70.424 C111.696002,71.2080039 112.043998,71.8839972 112.5,72.452 C112.956003,73.0200028 113.507997,73.4639984 114.156,73.784 C114.804004,74.1040016 115.535996,74.264 116.352,74.264 C117.616007,74.264 118.675996,73.9200034 119.532,73.232 C120.388005,72.5439966 120.975999,71.6480055 121.296,70.544 L121.344,70.544 L121.344,74 L121.824,74 L121.824,56.864 L121.344,56.864 Z M121.344,67.856 C121.344,68.656004 121.232002,69.4159964 121.008,70.136 C120.783999,70.8560036 120.460003,71.4879973 120.036,72.032 C119.611998,72.5760027 119.092004,73.0079984 118.476,73.328 C117.859997,73.6480016 117.152004,73.808 116.352,73.808 C115.551996,73.808 114.852003,73.6480016 114.252,73.328 C113.651997,73.0079984 113.156002,72.5720028 112.764,72.02 C112.371999,71.4679972 112.076001,70.8320036 111.876,70.112 C111.675999,69.3919964 111.576,68.6400039 111.576,67.856 C111.576,67.1359964 111.668,66.4200036 111.852,65.708 C112.036001,64.9959964 112.319999,64.3560028 112.704,63.788 C113.088002,63.2199972 113.583997,62.7560018 114.192,62.396 C114.800004,62.0359982 115.519996,61.856 116.352,61.856 C117.856008,61.856 119.063996,62.3719948 119.976,63.404 C120.888005,64.4360052 121.344,65.9199903 121.344,67.856 Z M133.304001,61.664 L133.304001,74 L133.784001,74 L133.784001,67.016 C133.784001,66.3279966 133.88,65.6720031 134.072001,65.048 C134.264002,64.4239969 134.547999,63.8760024 134.924001,63.404 C135.300003,62.9319976 135.767998,62.5560014 136.328001,62.276 C136.888004,61.9959986 137.535997,61.856 138.272001,61.856 C138.800003,61.856 139.299998,61.9319992 139.772001,62.084 C140.244003,62.2360008 140.659999,62.4759984 141.020001,62.804 C141.380003,63.1320016 141.664,63.5479975 141.872001,64.052 C142.080002,64.5560025 142.184001,65.1679964 142.184001,65.888 L142.184001,74 L142.664001,74 L142.664001,65.816 C142.664001,65.0959964 142.556002,64.4600028 142.340001,63.908 C142.124,63.3559972 141.820003,62.8920019 141.428001,62.516 C141.035999,62.1399981 140.572003,61.856001 140.036001,61.664 C139.499998,61.471999 138.912004,61.376 138.272001,61.376 C137.663998,61.376 137.112003,61.4599992 136.616001,61.628 C136.119998,61.7960008 135.684003,62.0319985 135.308001,62.336 C134.931999,62.6400015 134.620002,62.991998 134.372001,63.392 C134.123999,63.792002 133.944001,64.2319976 133.832001,64.712 L133.784001,64.712 L133.784001,61.664 L133.304001,61.664 Z M146.064001,67.928 L156.384001,67.928 C156.416001,67.0799958 156.332002,66.2640039 156.132001,65.48 C155.932,64.6959961 155.612003,64.000003 155.172001,63.392 C154.731999,62.783997 154.164004,62.2960018 153.468001,61.928 C152.771997,61.5599982 151.944006,61.376 150.984001,61.376 C150.295997,61.376 149.624004,61.5199986 148.968001,61.808 C148.311998,62.0960014 147.736003,62.5159972 147.240001,63.068 C146.743998,63.6200028 146.344002,64.295996 146.040001,65.096 C145.735999,65.896004 145.584001,66.8079949 145.584001,67.832 C145.584001,68.7440046 145.688,69.595996 145.896001,70.388 C146.104002,71.180004 146.423999,71.8679971 146.856001,72.452 C147.288003,73.0360029 147.843997,73.4879984 148.524001,73.808 C149.204004,74.1280016 150.023996,74.2800001 150.984001,74.264 C152.392008,74.264 153.575996,73.868004 154.536001,73.076 C155.496006,72.283996 156.064,71.1680072 156.240001,69.728 L155.760001,69.728 C155.552,71.0880068 155.020005,72.1079966 154.164001,72.788 C153.307997,73.4680034 152.232007,73.808 150.936001,73.808 C150.055996,73.808 149.312004,73.6560015 148.704001,73.352 C148.095998,73.0479985 147.600003,72.6320026 147.216001,72.104 C146.831999,71.5759974 146.548002,70.9560036 146.364001,70.244 C146.18,69.5319964 146.080001,68.7600042 146.064001,67.928 Z M155.904001,67.448 L146.064001,67.448 C146.112001,66.5839957 146.271999,65.8080034 146.544001,65.12 C146.816002,64.4319966 147.171999,63.8440024 147.612001,63.356 C148.052003,62.8679976 148.563998,62.4960013 149.148001,62.24 C149.732004,61.9839987 150.359997,61.856 151.032001,61.856 C151.832005,61.856 152.535998,62.0039985 153.144001,62.3 C153.752004,62.5960015 154.259999,62.9999974 154.668001,63.512 C155.076003,64.0240026 155.384,64.6199966 155.592001,65.3 C155.800002,65.9800034 155.904001,66.6959962 155.904001,67.448 Z M174.136001,61.664 L170.392001,73.52 L170.344001,73.52 L166.552001,61.664 L165.808001,61.664 L161.992001,73.52 L161.944001,73.52 L158.272001,61.664 L157.816001,61.664 L161.632001,74 L162.304001,74 L166.168001,62.144 L166.216001,62.144 L170.056001,74 L170.680001,74 L174.616001,61.664 L174.136001,61.664 Z M192.456001,65.312 L192.936001,65.312 C192.936001,63.9359931 192.536005,62.9360031 191.736001,62.312 C190.935997,61.6879969 189.848008,61.376 188.472001,61.376 C187.703997,61.376 187.056004,61.471999 186.528001,61.664 C185.999999,61.856001 185.568003,62.1039985 185.232001,62.408 C184.896,62.7120015 184.656002,63.0479982 184.512001,63.416 C184.368,63.7840018 184.296001,64.1359983 184.296001,64.472 C184.296001,65.1440034 184.416,65.679998 184.656001,66.08 C184.896002,66.480002 185.271999,66.7919989 185.784001,67.016 C186.136003,67.1760008 186.535999,67.3199994 186.984001,67.448 C187.432003,67.5760006 187.951998,67.7119993 188.544001,67.856 C189.072004,67.9840006 189.591999,68.1119994 190.104001,68.24 C190.616004,68.3680006 191.067999,68.5399989 191.460001,68.756 C191.852003,68.9720011 192.172,69.2479983 192.420001,69.584 C192.668002,69.9200017 192.792001,70.3599973 192.792001,70.904 C192.792001,71.4320026 192.668002,71.8799982 192.420001,72.248 C192.172,72.6160018 191.856003,72.9159988 191.472001,73.148 C191.087999,73.3800012 190.660004,73.5479995 190.188001,73.652 C189.715999,73.7560005 189.256003,73.808 188.808001,73.808 C187.351994,73.808 186.236005,73.4840032 185.460001,72.836 C184.683997,72.1879968 184.296001,71.168007 184.296001,69.776 L183.816001,69.776 C183.816001,71.3280078 184.235997,72.4639964 185.076001,73.184 C185.916005,73.9040036 187.159993,74.264 188.808001,74.264 C189.336004,74.264 189.867999,74.2040006 190.404001,74.084 C190.940004,73.9639994 191.419999,73.7680014 191.844001,73.496 C192.268003,73.2239986 192.612,72.8720022 192.876001,72.44 C193.140003,72.0079978 193.272001,71.4800031 193.272001,70.856 C193.272001,70.263997 193.156002,69.7840018 192.924001,69.416 C192.692,69.0479982 192.388003,68.7440012 192.012001,68.504 C191.635999,68.2639988 191.212004,68.0760007 190.740001,67.94 C190.267999,67.8039993 189.792004,67.6720006 189.312001,67.544 C188.639998,67.3679991 188.052004,67.2160006 187.548001,67.088 C187.043999,66.9599994 186.576003,66.8080009 186.144001,66.632 C185.727999,66.4559991 185.396002,66.2040016 185.148001,65.876 C184.9,65.5479984 184.776001,65.080003 184.776001,64.472 C184.776001,64.3599994 184.808001,64.1600014 184.872001,63.872 C184.936002,63.5839986 185.088,63.2920015 185.328001,62.996 C185.568002,62.6999985 185.935999,62.4360012 186.432001,62.204 C186.928004,61.9719988 187.607997,61.856 188.472001,61.856 C189.064004,61.856 189.603999,61.9199994 190.092001,62.048 C190.580004,62.1760006 190.999999,62.3799986 191.352001,62.66 C191.704003,62.9400014 191.976,63.2959978 192.168001,63.728 C192.360002,64.1600022 192.456001,64.6879969 192.456001,65.312 Z M197.008001,59.288 L197.008001,56.864 L196.528001,56.864 L196.528001,59.288 L197.008001,59.288 Z M197.008001,74 L197.008001,61.664 L196.528001,61.664 L196.528001,74 L197.008001,74 Z M201.968001,62.144 L204.752001,62.144 L204.752001,61.664 L201.968001,61.664 L201.968001,57.776 L201.488001,57.776 L201.488001,61.664 L199.232001,61.664 L199.232001,62.144 L201.488001,62.144 L201.488001,71.696 C201.488001,72.5760044 201.683999,73.1799984 202.076001,73.508 C202.468003,73.8360016 202.943999,74 203.504001,74 C203.872003,74 204.124001,73.9920001 204.260001,73.976 C204.396002,73.9599999 204.536001,73.9440001 204.680001,73.928 L204.680001,73.448 C204.600001,73.4800002 204.464002,73.5 204.272001,73.508 C204.08,73.516 203.864003,73.52 203.624001,73.52 C203.432,73.52 203.240002,73.5080001 203.048001,73.484 C202.856,73.4599999 202.680002,73.3840006 202.520001,73.256 C202.360001,73.1279994 202.228002,72.9360013 202.124001,72.68 C202.020001,72.4239987 201.968001,72.0640023 201.968001,71.6 L201.968001,62.144 Z M207.192002,67.928 L217.512002,67.928 C217.544002,67.0799958 217.460003,66.2640039 217.260002,65.48 C217.060001,64.6959961 216.740004,64.000003 216.300002,63.392 C215.859999,62.783997 215.292005,62.2960018 214.596002,61.928 C213.899998,61.5599982 213.072006,61.376 212.112002,61.376 C211.423998,61.376 210.752005,61.5199986 210.096002,61.808 C209.439998,62.0960014 208.864004,62.5159972 208.368002,63.068 C207.871999,63.6200028 207.472003,64.295996 207.168002,65.096 C206.864,65.896004 206.712002,66.8079949 206.712002,67.832 C206.712002,68.7440046 206.816001,69.595996 207.024002,70.388 C207.232003,71.180004 207.551999,71.8679971 207.984002,72.452 C208.416004,73.0360029 208.971998,73.4879984 209.652002,73.808 C210.332005,74.1280016 211.151997,74.2800001 212.112002,74.264 C213.520009,74.264 214.703997,73.868004 215.664002,73.076 C216.624006,72.283996 217.192001,71.1680072 217.368002,69.728 L216.888002,69.728 C216.680001,71.0880068 216.148006,72.1079966 215.292002,72.788 C214.435997,73.4680034 213.360008,73.808 212.064002,73.808 C211.183997,73.808 210.440005,73.6560015 209.832002,73.352 C209.223999,73.0479985 208.728003,72.6320026 208.344002,72.104 C207.96,71.5759974 207.676002,70.9560036 207.492002,70.244 C207.308001,69.5319964 207.208002,68.7600042 207.192002,67.928 Z M217.032002,67.448 L207.192002,67.448 C207.240002,66.5839957 207.4,65.8080034 207.672002,65.12 C207.944003,64.4319966 208.299999,63.8440024 208.740002,63.356 C209.180004,62.8679976 209.691999,62.4960013 210.276002,62.24 C210.860004,61.9839987 211.487998,61.856 212.160002,61.856 C212.960006,61.856 213.663999,62.0039985 214.272002,62.3 C214.880005,62.5960015 215.388,62.9999974 215.796002,63.512 C216.204004,64.0240026 216.512001,64.6199966 216.720002,65.3 C216.928003,65.9800034 217.032002,66.6959962 217.032002,67.448 Z M229.424002,62.144 L232.208002,62.144 L232.208002,61.664 L229.424002,61.664 L229.424002,57.776 L228.944002,57.776 L228.944002,61.664 L226.688002,61.664 L226.688002,62.144 L228.944002,62.144 L228.944002,71.696 C228.944002,72.5760044 229.14,73.1799984 229.532002,73.508 C229.924004,73.8360016 230.399999,74 230.960002,74 C231.328004,74 231.580001,73.9920001 231.716002,73.976 C231.852002,73.9599999 231.992001,73.9440001 232.136002,73.928 L232.136002,73.448 C232.056001,73.4800002 231.920003,73.5 231.728002,73.508 C231.536001,73.516 231.320003,73.52 231.080002,73.52 C230.888001,73.52 230.696003,73.5080001 230.504002,73.484 C230.312001,73.4599999 230.136003,73.3840006 229.976002,73.256 C229.816001,73.1279994 229.684002,72.9360013 229.580002,72.68 C229.476001,72.4239987 229.424002,72.0640023 229.424002,71.6 L229.424002,62.144 Z M234.888002,56.864 L234.888002,74 L235.368002,74 L235.368002,67.016 C235.368002,66.3279966 235.464001,65.6720031 235.656002,65.048 C235.848003,64.4239969 236.132,63.8760024 236.508002,63.404 C236.884004,62.9319976 237.351999,62.5560014 237.912002,62.276 C238.472005,61.9959986 239.119998,61.856 239.856002,61.856 C240.384005,61.856 240.884,61.9319992 241.356002,62.084 C241.828004,62.2360008 242.244,62.4759984 242.604002,62.804 C242.964004,63.1320016 243.248001,63.5479975 243.456002,64.052 C243.664003,64.5560025 243.768002,65.1679964 243.768002,65.888 L243.768002,74 L244.248002,74 L244.248002,65.816 C244.248002,65.0959964 244.140003,64.4600028 243.924002,63.908 C243.708001,63.3559972 243.404004,62.8920019 243.012002,62.516 C242.62,62.1399981 242.156005,61.856001 241.620002,61.664 C241.083999,61.471999 240.496005,61.376 239.856002,61.376 C239.247999,61.376 238.696004,61.4599992 238.200002,61.628 C237.703999,61.7960008 237.268004,62.0319985 236.892002,62.336 C236.516,62.6400015 236.204003,62.991998 235.956002,63.392 C235.708001,63.792002 235.528002,64.2319976 235.416002,64.712 L235.368002,64.712 L235.368002,56.864 L234.888002,56.864 Z M248.368002,59.288 L248.368002,56.864 L247.888002,56.864 L247.888002,59.288 L248.368002,59.288 Z M248.368002,74 L248.368002,61.664 L247.888002,61.664 L247.888002,74 L248.368002,74 Z M260.048002,65.312 L260.528002,65.312 C260.528002,63.9359931 260.128006,62.9360031 259.328002,62.312 C258.527998,61.6879969 257.440009,61.376 256.064002,61.376 C255.295998,61.376 254.648005,61.471999 254.120002,61.664 C253.592,61.856001 253.160004,62.1039985 252.824002,62.408 C252.488,62.7120015 252.248003,63.0479982 252.104002,63.416 C251.960001,63.7840018 251.888002,64.1359983 251.888002,64.472 C251.888002,65.1440034 252.008001,65.679998 252.248002,66.08 C252.488003,66.480002 252.864,66.7919989 253.376002,67.016 C253.728004,67.1760008 254.128,67.3199994 254.576002,67.448 C255.024004,67.5760006 255.543999,67.7119993 256.136002,67.856 C256.664005,67.9840006 257.184,68.1119994 257.696002,68.24 C258.208005,68.3680006 258.66,68.5399989 259.052002,68.756 C259.444004,68.9720011 259.764001,69.2479983 260.012002,69.584 C260.260003,69.9200017 260.384002,70.3599973 260.384002,70.904 C260.384002,71.4320026 260.260003,71.8799982 260.012002,72.248 C259.764001,72.6160018 259.448004,72.9159988 259.064002,73.148 C258.68,73.3800012 258.252005,73.5479995 257.780002,73.652 C257.308,73.7560005 256.848004,73.808 256.400002,73.808 C254.943995,73.808 253.828006,73.4840032 253.052002,72.836 C252.275998,72.1879968 251.888002,71.168007 251.888002,69.776 L251.408002,69.776 C251.408002,71.3280078 251.827998,72.4639964 252.668002,73.184 C253.508006,73.9040036 254.751994,74.264 256.400002,74.264 C256.928005,74.264 257.459999,74.2040006 257.996002,74.084 C258.532005,73.9639994 259.012,73.7680014 259.436002,73.496 C259.860004,73.2239986 260.204001,72.8720022 260.468002,72.44 C260.732003,72.0079978 260.864002,71.4800031 260.864002,70.856 C260.864002,70.263997 260.748003,69.7840018 260.516002,69.416 C260.284001,69.0479982 259.980004,68.7440012 259.604002,68.504 C259.228,68.2639988 258.804005,68.0760007 258.332002,67.94 C257.86,67.8039993 257.384005,67.6720006 256.904002,67.544 C256.231999,67.3679991 255.644005,67.2160006 255.140002,67.088 C254.636,66.9599994 254.168004,66.8080009 253.736002,66.632 C253.32,66.4559991 252.988003,66.2040016 252.740002,65.876 C252.492001,65.5479984 252.368002,65.080003 252.368002,64.472 C252.368002,64.3599994 252.400002,64.1600014 252.464002,63.872 C252.528002,63.5839986 252.680001,63.2920015 252.920002,62.996 C253.160003,62.6999985 253.528,62.4360012 254.024002,62.204 C254.520005,61.9719988 255.199998,61.856 256.064002,61.856 C256.656005,61.856 257.196,61.9199994 257.684002,62.048 C258.172005,62.1760006 258.592,62.3799986 258.944002,62.66 C259.296004,62.9400014 259.568001,63.2959978 259.760002,63.728 C259.952003,64.1600022 260.048002,64.6879969 260.048002,65.312 Z M279.832002,65.312 L280.312002,65.312 C280.312002,63.9359931 279.912006,62.9360031 279.112002,62.312 C278.311998,61.6879969 277.224009,61.376 275.848002,61.376 C275.079999,61.376 274.432005,61.471999 273.904002,61.664 C273.376,61.856001 272.944004,62.1039985 272.608002,62.408 C272.272001,62.7120015 272.032003,63.0479982 271.888002,63.416 C271.744002,63.7840018 271.672002,64.1359983 271.672002,64.472 C271.672002,65.1440034 271.792001,65.679998 272.032002,66.08 C272.272004,66.480002 272.648,66.7919989 273.160002,67.016 C273.512004,67.1760008 273.912,67.3199994 274.360002,67.448 C274.808005,67.5760006 275.327999,67.7119993 275.920002,67.856 C276.448005,67.9840006 276.968,68.1119994 277.480002,68.24 C277.992005,68.3680006 278.444,68.5399989 278.836002,68.756 C279.228004,68.9720011 279.548001,69.2479983 279.796002,69.584 C280.044004,69.9200017 280.168002,70.3599973 280.168002,70.904 C280.168002,71.4320026 280.044004,71.8799982 279.796002,72.248 C279.548001,72.6160018 279.232004,72.9159988 278.848002,73.148 C278.464,73.3800012 278.036005,73.5479995 277.564002,73.652 C277.092,73.7560005 276.632005,73.808 276.184002,73.808 C274.727995,73.808 273.612006,73.4840032 272.836002,72.836 C272.059999,72.1879968 271.672002,71.168007 271.672002,69.776 L271.192002,69.776 C271.192002,71.3280078 271.611998,72.4639964 272.452002,73.184 C273.292007,73.9040036 274.535994,74.264 276.184002,74.264 C276.712005,74.264 277.244,74.2040006 277.780002,74.084 C278.316005,73.9639994 278.796,73.7680014 279.220002,73.496 C279.644005,73.2239986 279.988001,72.8720022 280.252002,72.44 C280.516004,72.0079978 280.648002,71.4800031 280.648002,70.856 C280.648002,70.263997 280.532004,69.7840018 280.300002,69.416 C280.068001,69.0479982 279.764004,68.7440012 279.388002,68.504 C279.012001,68.2639988 278.588005,68.0760007 278.116002,67.94 C277.644,67.8039993 277.168005,67.6720006 276.688002,67.544 C276.015999,67.3679991 275.428005,67.2160006 274.924002,67.088 C274.42,66.9599994 273.952005,66.8080009 273.520002,66.632 C273.104,66.4559991 272.772004,66.2040016 272.524002,65.876 C272.276001,65.5479984 272.152002,65.080003 272.152002,64.472 C272.152002,64.3599994 272.184002,64.1600014 272.248002,63.872 C272.312003,63.5839986 272.464001,63.2920015 272.704002,62.996 C272.944004,62.6999985 273.312,62.4360012 273.808002,62.204 C274.304005,61.9719988 274.983998,61.856 275.848002,61.856 C276.440005,61.856 276.98,61.9199994 277.468002,62.048 C277.956005,62.1760006 278.376001,62.3799986 278.728002,62.66 C279.080004,62.9400014 279.352001,63.2959978 279.544002,63.728 C279.736003,64.1600022 279.832002,64.6879969 279.832002,65.312 Z M293.264003,74 L293.264003,61.664 L292.784003,61.664 L292.784003,68.648 C292.784003,69.3360034 292.688003,69.9919969 292.496003,70.616 C292.304002,71.2400031 292.020004,71.7879976 291.644003,72.26 C291.268001,72.7320024 290.800005,73.1079986 290.240003,73.388 C289.68,73.6680014 289.032006,73.808 288.296003,73.808 C287.768,73.808 287.268005,73.7320008 286.796003,73.58 C286.324,73.4279992 285.908004,73.1880016 285.548003,72.86 C285.188001,72.5319984 284.904004,72.1160025 284.696003,71.612 C284.488001,71.1079975 284.384003,70.4960036 284.384003,69.776 L284.384003,61.664 L283.904003,61.664 L283.904003,69.848 C283.904003,70.5680036 284.012001,71.2039972 284.228003,71.756 C284.444004,72.3080028 284.748001,72.7719981 285.140003,73.148 C285.532004,73.5240019 285.996,73.8039991 286.532003,73.988 C287.068005,74.1720009 287.655999,74.264 288.296003,74.264 C289.512009,74.264 290.499999,73.9520031 291.260003,73.328 C292.020006,72.7039969 292.512001,71.9120048 292.736003,70.952 L292.784003,70.952 L292.784003,74 L293.264003,74 Z M296.904003,61.664 L296.904003,74 L297.384003,74 L297.384003,67.016 C297.384003,66.3279966 297.476002,65.6720031 297.660003,65.048 C297.844004,64.4239969 298.108001,63.8760024 298.452003,63.404 C298.796004,62.9319976 299.216,62.5560014 299.712003,62.276 C300.208005,61.9959986 300.76,61.856 301.368003,61.856 C302.056006,61.856 302.616,61.9679989 303.048003,62.192 C303.480005,62.4160011 303.816001,62.7199981 304.056003,63.104 C304.296004,63.4880019 304.460002,63.9359974 304.548003,64.448 C304.636003,64.9600026 304.680003,65.5039971 304.680003,66.08 L304.680003,74 L305.160003,74 L305.160003,66.176 C305.160003,65.5999971 305.248002,65.0520026 305.424003,64.532 C305.600004,64.0119974 305.856001,63.552002 306.192003,63.152 C306.528004,62.751998 306.936,62.4360012 307.416003,62.204 C307.896005,61.9719988 308.432,61.856 309.024003,61.856 C309.696006,61.856 310.252,61.951999 310.692003,62.144 C311.132005,62.336001 311.484001,62.6079982 311.748003,62.96 C312.012004,63.3120018 312.196002,63.7359975 312.300003,64.232 C312.404003,64.7280025 312.456003,65.279997 312.456003,65.888 L312.456003,74 L312.936003,74 L312.936003,65.888 C312.936003,65.2159966 312.872003,64.6040028 312.744003,64.052 C312.616002,63.4999972 312.400004,63.028002 312.096003,62.636 C311.792001,62.243998 311.392005,61.9360011 310.896003,61.712 C310.4,61.4879989 309.776006,61.376 309.024003,61.376 C308.063998,61.376 307.232006,61.6399974 306.528003,62.168 C305.823999,62.6960026 305.352004,63.3919957 305.112003,64.256 L305.064003,64.256 C304.856002,63.3439954 304.428006,62.6280026 303.780003,62.108 C303.131999,61.5879974 302.328007,61.3439998 301.368003,61.376 C300.888,61.376 300.436005,61.4599992 300.012003,61.628 C299.588001,61.7960008 299.200004,62.0319985 298.848003,62.336 C298.496001,62.6400015 298.200004,62.991998 297.960003,63.392 C297.720001,63.792002 297.544003,64.2319976 297.432003,64.712 L297.384003,64.712 L297.384003,61.664 L296.904003,61.664 Z M316.576003,61.664 L316.576003,74 L317.056003,74 L317.056003,67.016 C317.056003,66.3279966 317.148002,65.6720031 317.332003,65.048 C317.516004,64.4239969 317.780001,63.8760024 318.124003,63.404 C318.468004,62.9319976 318.888,62.5560014 319.384003,62.276 C319.880005,61.9959986 320.432,61.856 321.040003,61.856 C321.728006,61.856 322.288001,61.9679989 322.720003,62.192 C323.152005,62.4160011 323.488002,62.7199981 323.728003,63.104 C323.968004,63.4880019 324.132002,63.9359974 324.220003,64.448 C324.308003,64.9600026 324.352003,65.5039971 324.352003,66.08 L324.352003,74 L324.832003,74 L324.832003,66.176 C324.832003,65.5999971 324.920002,65.0520026 325.096003,64.532 C325.272004,64.0119974 325.528001,63.552002 325.864003,63.152 C326.200004,62.751998 326.608,62.4360012 327.088003,62.204 C327.568005,61.9719988 328.104,61.856 328.696003,61.856 C329.368006,61.856 329.924001,61.951999 330.364003,62.144 C330.804005,62.336001 331.156001,62.6079982 331.420003,62.96 C331.684004,63.3120018 331.868002,63.7359975 331.972003,64.232 C332.076003,64.7280025 332.128003,65.279997 332.128003,65.888 L332.128003,74 L332.608003,74 L332.608003,65.888 C332.608003,65.2159966 332.544003,64.6040028 332.416003,64.052 C332.288002,63.4999972 332.072004,63.028002 331.768003,62.636 C331.464001,62.243998 331.064005,61.9360011 330.568003,61.712 C330.072,61.4879989 329.448007,61.376 328.696003,61.376 C327.735998,61.376 326.904006,61.6399974 326.200003,62.168 C325.495999,62.6960026 325.024004,63.3919957 324.784003,64.256 L324.736003,64.256 C324.528002,63.3439954 324.100006,62.6280026 323.452003,62.108 C322.804,61.5879974 322.000008,61.3439998 321.040003,61.376 C320.56,61.376 320.108005,61.4599992 319.684003,61.628 C319.260001,61.7960008 318.872005,62.0319985 318.520003,62.336 C318.168001,62.6400015 317.872004,62.991998 317.632003,63.392 C317.392002,63.792002 317.216003,64.2319976 317.104003,64.712 L317.056003,64.712 L317.056003,61.664 L316.576003,61.664 Z M336.008003,67.928 L346.328003,67.928 C346.360003,67.0799958 346.276004,66.2640039 346.076003,65.48 C345.876002,64.6959961 345.556005,64.000003 345.116003,63.392 C344.676001,62.783997 344.108006,62.2960018 343.412003,61.928 C342.715999,61.5599982 341.888008,61.376 340.928003,61.376 C340.239999,61.376 339.568006,61.5199986 338.912003,61.808 C338.256,62.0960014 337.680005,62.5159972 337.184003,63.068 C336.688,63.6200028 336.288004,64.295996 335.984003,65.096 C335.680001,65.896004 335.528003,66.8079949 335.528003,67.832 C335.528003,68.7440046 335.632002,69.595996 335.840003,70.388 C336.048004,71.180004 336.368001,71.8679971 336.800003,72.452 C337.232005,73.0360029 337.787999,73.4879984 338.468003,73.808 C339.148006,74.1280016 339.967998,74.2800001 340.928003,74.264 C342.33601,74.264 343.519998,73.868004 344.480003,73.076 C345.440008,72.283996 346.008002,71.1680072 346.184003,69.728 L345.704003,69.728 C345.496002,71.0880068 344.964007,72.1079966 344.108003,72.788 C343.251999,73.4680034 342.176009,73.808 340.880003,73.808 C339.999998,73.808 339.256006,73.6560015 338.648003,73.352 C338.04,73.0479985 337.544005,72.6320026 337.160003,72.104 C336.776001,71.5759974 336.492004,70.9560036 336.308003,70.244 C336.124002,69.5319964 336.024003,68.7600042 336.008003,67.928 Z M345.848003,67.448 L336.008003,67.448 C336.056003,66.5839957 336.216002,65.8080034 336.488003,65.12 C336.760004,64.4319966 337.116001,63.8440024 337.556003,63.356 C337.996005,62.8679976 338.508,62.4960013 339.092003,62.24 C339.676006,61.9839987 340.304,61.856 340.976003,61.856 C341.776007,61.856 342.48,62.0039985 343.088003,62.3 C343.696006,62.5960015 344.204001,62.9999974 344.612003,63.512 C345.020005,64.0240026 345.328002,64.6199966 345.536003,65.3 C345.744004,65.9800034 345.848003,66.6959962 345.848003,67.448 Z M349.728003,74 L349.728003,67.016 C349.728003,66.3439966 349.824002,65.6880032 350.016003,65.048 C350.208004,64.4079968 350.504001,63.8440024 350.904003,63.356 C351.304005,62.8679976 351.812,62.4840014 352.428003,62.204 C353.044006,61.9239986 353.775999,61.8079998 354.624003,61.856 L354.624003,61.376 C353.887999,61.3599999 353.244006,61.4399991 352.692003,61.616 C352.14,61.7920009 351.664005,62.0319985 351.264003,62.336 C350.864001,62.6400015 350.544004,62.995998 350.304003,63.404 C350.064002,63.812002 349.888004,64.2479977 349.776003,64.712 L349.728003,64.712 L349.728003,61.664 L349.248003,61.664 L349.248003,74 L349.728003,74 Z M357.400003,74 L357.400003,71.648 L356.920003,71.648 L356.920003,74 L357.400003,74 Z" id="Brand-new-site-this-" fill="#999999" sketch:type="MSShapeGroup"></path>
            <path d="M297.969,11.244 L281.256,11.244 L281.256,39 L282.336,39 L282.336,12.324 L298.158,12.324 L298.158,12.1430748 L309.336,38.73 L307.338,43.86 C307.013998,44.6880041 306.672002,45.3449976 306.312,45.831 C305.951998,46.3170024 305.520003,46.6769988 305.016,46.911 C304.763999,47.0280006 304.49175,47.1225005 304.19925,47.1945003 C303.906751,47.2665002 303.594002,47.3159999 303.261,47.343 C302.594997,47.3970003 301.794005,47.424 300.858,47.424 L300.858,48.504 C301.686004,48.504 302.459996,48.4770003 303.18,48.423 C303.900004,48.3689997 304.574997,48.2160013 305.205,47.964 C305.835003,47.7119987 306.401997,47.3250026 306.906,46.803 C307.410003,46.2809974 307.841998,45.5520047 308.202,44.616 L321,11.244 L319.866,11.244 L309.93,37.542 L298.914,11.244 L297.969,11.244 Z M-0.084,0.444 L1.698,0.444 L18.006,37.596 L18.114,37.596 L34.422,0.444 L36.204,0.444 L36.204,39 L35.124,39 L35.124,1.794 L35.016,1.794 L18.654,39 L17.466,39 L1.104,1.794 L0.996,1.794 L0.996,39 L-0.084,39 L-0.084,0.444 Z M42.09,11.244 L43.17,11.244 L43.17,38.028 L43.278,38.028 L62.016,11.244 L63.69,11.244 L63.69,39 L62.61,39 L62.61,12.216 L62.502,12.216 L43.764,39 L42.09,39 L42.09,11.244 Z M76.974,24.636 L66.876,11.244 L68.28,11.244 L77.622,23.826 L87.18,11.244 L88.476,11.244 L78.324,24.636 L89.448,39 L88.098,39 L77.622,25.446 L67.2,39 L65.904,39 L76.974,24.636 Z M99.114,39.594 C96.305986,39.594 94.0560085,38.9730062 92.364,37.731 C90.6719915,36.4889938 89.826,34.6260124 89.826,32.142 C89.826,30.4139914 90.1049972,29.0280052 90.663,27.984 C91.2210028,26.9399948 91.9499955,26.121003 92.85,25.527 C93.7500045,24.932997 94.7759942,24.5190012 95.928,24.285 C97.0800058,24.0509988 98.2319942,23.8980004 99.384,23.826 C101.29201,23.7179995 102.929993,23.6190005 104.298,23.529 C105.666007,23.4389995 106.790996,23.2590013 107.673,22.989 C108.555004,22.7189987 109.202998,22.3050028 109.617,21.747 C110.031002,21.1889972 110.238,20.3880052 110.238,19.344 C110.238,18.5159959 110.166001,17.6520045 110.022,16.752 C109.877999,15.8519955 109.527003,15.0240038 108.969,14.268 C108.410997,13.5119962 107.592005,12.8910024 106.512,12.405 C105.431995,11.9189976 103.974009,11.676 102.138,11.676 C99.2219854,11.676 96.9540081,12.3869929 95.334,13.809 C93.7139919,15.2310071 92.8140009,17.237987 92.634,19.83 L91.554,19.83 C91.6260004,18.5339935 91.8959977,17.3190057 92.364,16.185 C92.8320023,15.0509943 93.5069956,14.0700041 94.389,13.242 C95.2710044,12.4139959 96.3509936,11.7660023 97.629,11.298 C98.9070064,10.8299977 100.409991,10.596 102.138,10.596 C103.362006,10.596 104.522995,10.7219987 105.621,10.974 C106.719005,11.2260013 107.681996,11.6669969 108.51,12.297 C109.338004,12.9270032 110.003997,13.745995 110.508,14.754 C111.012003,15.762005 111.282,17.0219924 111.318,18.534 L111.318,36.192 C111.318,36.7320027 111.434999,37.1279987 111.669,37.38 C111.903001,37.6320013 112.190998,37.8029995 112.533,37.893 C112.875002,37.9830004 113.252998,38.0190001 113.667,38.001 C114.081002,37.9829999 114.467998,37.9560002 114.828,37.92 L114.828,39 L113.208,39 C112.415996,39 111.723003,38.8110019 111.129,38.433 C110.534997,38.0549981 110.238,37.3440052 110.238,36.3 L110.238,32.682 L110.13,32.682 C109.841999,33.5820045 109.374003,34.4459959 108.726,35.274 C108.077997,36.1020041 107.286005,36.8399968 106.35,37.488 C105.413995,38.1360032 104.334006,38.6489981 103.11,39.027 C101.885994,39.4050019 100.554007,39.594 99.114,39.594 Z M99.006,38.568 C100.806009,38.568 102.407993,38.2620031 103.812,37.65 C105.216007,37.0379969 106.394995,36.2370049 107.349,35.247 C108.303005,34.2569951 109.022998,33.1140065 109.509,31.818 C109.995002,30.5219935 110.238,29.1900068 110.238,27.822 L110.238,22.692 L110.13,22.692 C109.769998,23.1960025 109.212004,23.5829987 108.456,23.853 C107.699996,24.1230014 106.836005,24.3299993 105.864,24.474 C104.891995,24.6180007 103.839006,24.7079998 102.705,24.744 C101.570994,24.7800002 100.464005,24.8339996 99.384,24.906 C98.3039946,24.9780004 97.2510051,25.112999 96.225,25.311 C95.1989949,25.509001 94.290004,25.8689974 93.498,26.391 C92.705996,26.9130026 92.0760023,27.6329954 91.608,28.551 C91.1399977,29.4690046 90.906,30.6659926 90.906,32.142 C90.906,32.934004 91.0409987,33.7169961 91.311,34.491 C91.5810014,35.2650039 92.0399968,35.948997 92.688,36.543 C93.3360032,37.137003 94.1729949,37.6229981 95.199,38.001 C96.2250051,38.3790019 97.4939924,38.568 99.006,38.568 Z M117.582,11.244 L118.662,11.244 L118.662,38.028 L118.77,38.028 L137.508,11.244 L139.182,11.244 L139.182,39 L138.102,39 L138.102,12.216 L137.994,12.216 L119.256,39 L117.582,39 L117.582,11.244 Z M144.69,39.324 C143.429994,39.324 142.404004,39.2160011 141.612,39 L141.612,37.812 C142.044002,37.9560007 142.493998,38.0639996 142.962,38.136 C143.430002,38.2080004 143.987997,38.244 144.636,38.244 C146.148008,38.244 147.308996,37.4970075 148.119,36.003 C148.929004,34.5089925 149.522998,32.5110125 149.901,30.009 C150.279002,27.5069875 150.504,24.6360162 150.576,21.396 C150.648,18.1559838 150.684,14.7720176 150.684,11.244 L167.748,11.244 L167.748,39 L166.668,39 L166.668,12.324 L151.764,12.324 C151.764,15.7440171 151.728,19.0739838 151.656,22.314 C151.584,25.5540162 151.323002,28.4339874 150.873,30.954 C150.422998,33.4740126 149.721005,35.4989924 148.767,37.029 C147.812995,38.5590076 146.454009,39.324 144.69,39.324 Z M185.73,37.92 L189.294,37.92 C190.806008,35.111986 191.975996,32.1780153 192.804,29.118 C193.632004,26.0579847 194.252998,23.0160151 194.667,19.992 C195.081002,16.9679849 195.324,14.052014 195.396,11.244 C195.468,8.43598596 195.504,5.89801134 195.504,3.63 L195.504,0.444 L218.13,0.444 L218.13,37.92 L222.45,37.92 L222.45,48.504 L221.37,48.504 L221.37,39 L186.81,39 L186.81,48.504 L185.73,48.504 L185.73,37.92 Z M217.05,37.92 L217.05,1.524 L196.584,1.524 L196.584,5.358 C196.584,7.5180108 196.539,9.92998668 196.449,12.594 C196.359,15.2580133 196.107002,18.0299856 195.693,20.91 C195.278998,23.7900144 194.676004,26.6879854 193.884,29.604 C193.091996,32.5200146 191.994007,35.2919869 190.59,37.92 L217.05,37.92 Z M225.96,11.244 L227.04,11.244 L227.04,19.02 L227.148,19.02 C227.508002,17.7959939 228.029997,16.6710051 228.714,15.645 C229.398003,14.6189949 230.207995,13.7280038 231.144,12.972 C232.080005,12.2159962 233.150994,11.6310021 234.357,11.217 C235.563006,10.8029979 236.867993,10.596 238.272,10.596 C240.108009,10.596 241.754993,10.9559964 243.213,11.676 C244.671007,12.3960036 245.912995,13.4039935 246.939,14.7 C247.965005,15.9960065 248.747997,17.5259912 249.288,19.29 C249.828003,21.0540088 250.098,22.9799896 250.098,25.068 C250.098,27.0120097 249.837003,28.8659912 249.315,30.63 C248.792997,32.3940088 248.037005,33.9419933 247.047,35.274 C246.056995,36.6060067 244.824007,37.6589961 243.348,38.433 C241.871993,39.2070039 240.18001,39.594 238.272,39.594 C235.319985,39.594 232.89001,38.8290076 230.982,37.299 C229.07399,35.7689924 227.796003,33.7440126 227.148,31.224 L227.04,31.224 L227.04,48.504 L225.96,48.504 L225.96,11.244 Z M238.272,38.568 C240.144009,38.568 241.763993,38.163004 243.132,37.353 C244.500007,36.5429959 245.615996,35.4990064 246.48,34.221 C247.344004,32.9429936 247.982998,31.503008 248.397,29.901 C248.811002,28.298992 249.018,26.6880081 249.018,25.068 C249.018,23.3039912 248.793002,21.6120081 248.343,19.992 C247.892998,18.3719919 247.227004,16.9410062 246.345,15.699 C245.462996,14.4569938 244.347007,13.4760036 242.997,12.756 C241.646993,12.0359964 240.072009,11.676 238.272,11.676 C236.471991,11.676 234.879007,12.0359964 233.493,12.756 C232.106993,13.4760036 230.937005,14.4479939 229.983,15.672 C229.028995,16.8960061 228.300003,18.3179919 227.796,19.938 C227.291997,21.5580081 227.04,23.267991 227.04,25.068 C227.04,29.4240218 228.06599,32.7629884 230.118,35.085 C232.17001,37.4070116 234.887983,38.568 238.272,38.568 Z M262.464,39.594 C259.655986,39.594 257.406008,38.9730062 255.714,37.731 C254.021992,36.4889938 253.176,34.6260124 253.176,32.142 C253.176,30.4139914 253.454997,29.0280052 254.013,27.984 C254.571003,26.9399948 255.299995,26.121003 256.2,25.527 C257.100004,24.932997 258.125994,24.5190012 259.278,24.285 C260.430006,24.0509988 261.581994,23.8980004 262.734,23.826 C264.64201,23.7179995 266.279993,23.6190005 267.648,23.529 C269.016007,23.4389995 270.140996,23.2590013 271.023,22.989 C271.905004,22.7189987 272.552998,22.3050028 272.967,21.747 C273.381002,21.1889972 273.588,20.3880052 273.588,19.344 C273.588,18.5159959 273.516001,17.6520045 273.372,16.752 C273.227999,15.8519955 272.877003,15.0240038 272.319,14.268 C271.760997,13.5119962 270.942005,12.8910024 269.862,12.405 C268.781995,11.9189976 267.324009,11.676 265.488,11.676 C262.571985,11.676 260.304008,12.3869929 258.684,13.809 C257.063992,15.2310071 256.164001,17.237987 255.984,19.83 L254.904,19.83 C254.976,18.5339935 255.245998,17.3190057 255.714,16.185 C256.182002,15.0509943 256.856996,14.0700041 257.739,13.242 C258.621004,12.4139959 259.700994,11.7660023 260.979,11.298 C262.257006,10.8299977 263.759991,10.596 265.488,10.596 C266.712006,10.596 267.872995,10.7219987 268.971,10.974 C270.069005,11.2260013 271.031996,11.6669969 271.86,12.297 C272.688004,12.9270032 273.353997,13.745995 273.858,14.754 C274.362003,15.762005 274.632,17.0219924 274.668,18.534 L274.668,36.192 C274.668,36.7320027 274.784999,37.1279987 275.019,37.38 C275.253001,37.6320013 275.540998,37.8029995 275.883,37.893 C276.225002,37.9830004 276.602998,38.0190001 277.017,38.001 C277.431002,37.9829999 277.817998,37.9560002 278.178,37.92 L278.178,39 L276.558,39 C275.765996,39 275.073003,38.8110019 274.479,38.433 C273.884997,38.0549981 273.588,37.3440052 273.588,36.3 L273.588,32.682 L273.48,32.682 C273.191999,33.5820045 272.724003,34.4459959 272.076,35.274 C271.427997,36.1020041 270.636005,36.8399968 269.7,37.488 C268.763995,38.1360032 267.684006,38.6489981 266.46,39.027 C265.235994,39.4050019 263.904007,39.594 262.464,39.594 Z M262.356,38.568 C264.156009,38.568 265.757993,38.2620031 267.162,37.65 C268.566007,37.0379969 269.744995,36.2370049 270.699,35.247 C271.653005,34.2569951 272.372998,33.1140065 272.859,31.818 C273.345002,30.5219935 273.588,29.1900068 273.588,27.822 L273.588,22.692 L273.48,22.692 C273.119998,23.1960025 272.562004,23.5829987 271.806,23.853 C271.049996,24.1230014 270.186005,24.3299993 269.214,24.474 C268.241995,24.6180007 267.189006,24.7079998 266.055,24.744 C264.920994,24.7800002 263.814005,24.8339996 262.734,24.906 C261.653995,24.9780004 260.601005,25.112999 259.575,25.311 C258.548995,25.509001 257.640004,25.8689974 256.848,26.391 C256.055996,26.9130026 255.426002,27.6329954 254.958,28.551 C254.489998,29.4690046 254.256,30.6659926 254.256,32.142 C254.256,32.934004 254.390999,33.7169961 254.661,34.491 C254.931001,35.2650039 255.389997,35.948997 256.038,36.543 C256.686003,37.137003 257.522995,37.6229981 258.549,38.001 C259.575005,38.3790019 260.843992,38.568 262.356,38.568 Z M323.322,11.244 L324.402,11.244 L324.402,23.988 L343.302,23.988 L343.302,11.244 L344.382,11.244 L344.382,39 L343.302,39 L343.302,25.068 L324.402,25.068 L324.402,39 L323.322,39 L323.322,11.244 Z M350.322,11.244 L351.402,11.244 L351.402,27.822 L370.032,11.244 L371.598,11.244 L359.016,22.476 L372.246,39 L370.788,39 L358.206,23.232 L351.402,29.226 L351.402,39 L350.322,39 L350.322,11.244 Z M374.298,11.244 L375.378,11.244 L375.378,38.028 L375.486,38.028 L394.224,11.244 L395.898,11.244 L395.898,39 L394.818,39 L394.818,12.216 L394.71,12.216 L375.972,39 L374.298,39 L374.298,11.244 Z M401.838,11.244 L402.918,11.244 L402.918,23.988 L421.818,23.988 L421.818,11.244 L422.898,11.244 L422.898,39 L421.818,39 L421.818,25.068 L402.918,25.068 L402.918,39 L401.838,39 L401.838,11.244 Z" id="Михаил-Драгункин" fill="#000000" sketch:type="MSShapeGroup"></path>
        </g>
    </g>
</svg>